<?xml version="1.0" encoding="UTF-8"?>
<svg width="115px" height="28px" viewBox="0 0 115 28" version="1.1" xmlns="http://www.w3.org/2000/svg" xmlns:xlink="http://www.w3.org/1999/xlink">
    <!-- Generator: Sketch 51 (57462) - http://www.bohemiancoding.com/sketch -->
    <title>ppcom-white copy 2</title>
    <desc>Created with Sketch.</desc>
    <defs></defs>
    <g id="Brands" stroke="none" stroke-width="1" fill="none" fill-rule="evenodd">
        <g id="992px" transform="translate(-851.000000, -381.000000)" fill="#A1A7B3" fill-rule="nonzero">
            <g id="LOGOS" transform="translate(17.000000, 379.000000)">
                <g id="ppcom-white-copy-2" transform="translate(834.000000, 2.000000)">
                    <g id="Group" transform="translate(33.377152, 5.923077)">
                        <path d="M54.8429484,0.270300789 L48.5406034,0.270300789 C48.1097973,0.270300789 47.7430032,0.583623274 47.6758756,1.0090286 L45.1272935,17.1571657 C45.0771603,17.4758659 45.3232947,17.763998 45.6461869,17.763998 L48.8799234,17.763998 C49.1812894,17.763998 49.4384702,17.544927 49.4852046,17.2468886 L50.2080298,12.6690404 C50.2751574,12.2436351 50.6419516,11.9303126 51.0730409,11.9303126 L53.0673248,11.9303126 C57.2181883,11.9303126 59.6138215,9.92272781 60.2400623,5.94407002 C60.5218849,4.20395562 60.2513919,2.83660158 59.4359476,1.87936884 C58.5397803,0.826752465 56.9513775,0.270300789 54.8429484,0.270300789 Z M55.5703054,6.16795266 C55.2258871,8.42857298 53.4984141,8.42857298 51.8270224,8.42857298 L50.8764732,8.42857298 L51.5432172,4.20791815 C51.5837203,3.95261834 51.8037968,3.76468146 52.0621105,3.76468146 L52.498015,3.76468146 C53.6355017,3.76468146 54.7101094,3.76468146 55.2638411,4.4122712 C55.5955137,4.80003254 55.6954969,5.37431558 55.5703054,6.16795266 Z" id="Shape"></path>
                        <path d="M9.89409524,0.270300789 L3.59203355,0.270300789 C3.16122744,0.270300789 2.79443329,0.583623274 2.72702247,1.0090286 L0.178440398,17.1571657 C0.128307144,17.4758659 0.374724837,17.763998 0.697616986,17.763998 L3.70674523,17.763998 C4.13755134,17.763998 4.50434549,17.4509586 4.5717563,17.0255533 L5.25945994,12.6690404 C5.32658751,12.2436351 5.69338167,11.9303126 6.12418777,11.9303126 L8.11847165,11.9303126 C12.2696184,11.9303126 14.6652516,9.92272781 15.2914924,5.94407002 C15.573315,4.20395562 15.302822,2.83660158 14.4876609,1.87936884 C13.5909271,0.826752465 12.0022411,0.270300789 9.89409524,0.270300789 Z M10.6214523,6.16795266 C10.277034,8.42857298 8.54927776,8.42857298 6.8784525,8.42857298 L5.92762009,8.42857298 L6.59436406,4.20791815 C6.6348672,3.95261834 6.85466045,3.76468146 7.11325741,3.76468146 L7.54916181,3.76468146 C8.68664854,3.76468146 9.76125627,3.76468146 10.314988,4.4122712 C10.6463773,4.80003254 10.7466438,5.37431558 10.6214523,6.16795266 Z" id="Shape"></path>
                        <path d="M28.7303204,6.09577811 L25.7129782,6.09577811 C25.4543812,6.09577811 25.2343047,6.28371499 25.1938016,6.53901479 L25.0612459,7.38218343 L24.850233,7.076786 C24.196518,6.12889349 22.7401045,5.81217456 21.2856736,5.81217456 C17.9519538,5.81217456 15.1037052,8.33686884 14.549407,11.8776677 C14.2607867,13.6441045 14.6703499,15.3324231 15.6727318,16.5107081 C16.5935409,17.5933264 17.9077686,18.0439221 19.4735122,18.0439221 C22.1605981,18.0439221 23.6512835,16.3185256 23.6512835,16.3185256 L23.5164618,17.1568826 C23.4657621,17.4755828 23.7121798,17.763998 24.0353552,17.763998 L26.7530308,17.763998 C27.1838369,17.763998 27.5503478,17.4509586 27.6177586,17.0258363 L29.2492137,6.70261045 C29.2996302,6.38362722 29.0532125,6.09577811 28.7303204,6.09577811 Z M24.5247917,11.9654093 C24.2333391,13.6882584 22.8644463,14.8450325 21.1185628,14.8450325 C20.2433551,14.8450325 19.5426225,14.5636933 19.0922729,14.0310168 C18.6458887,13.5031519 18.4779281,12.7508383 18.6195475,11.9130473 C18.8911734,10.2054822 20.2821588,9.01134714 22.0014179,9.01134714 C22.858215,9.01134714 23.5541326,9.29523373 24.0132626,9.83300493 C24.4755082,10.3744556 24.6570642,11.1315809 24.5247917,11.9654093 Z" id="Shape"></path>
                        <path d="M73.6791735,6.09577811 L70.6618313,6.09577811 C70.4032344,6.09577811 70.1831579,6.28371499 70.142938,6.53901479 L70.010099,7.38218343 L69.7990862,7.076786 C69.1453712,6.12889349 67.6889576,5.81217456 66.2345268,5.81217456 C62.9005237,5.81217456 60.0525583,8.33686884 59.4985433,11.8776677 C59.2099231,13.6441045 59.6194863,15.3324231 60.6218681,16.5107081 C61.5426772,17.5933264 62.8569049,18.0439221 64.4226486,18.0439221 C67.1097344,18.0439221 68.6004199,16.3185256 68.6004199,16.3185256 L68.4655982,17.1568826 C68.4148985,17.4755828 68.6613162,17.763998 68.9844916,17.763998 L71.7021672,17.763998 C72.1329733,17.763998 72.4994842,17.4509586 72.566895,17.0258363 L74.1983501,6.70261045 C74.2487666,6.38362722 74.0020656,6.09577811 73.6791735,6.09577811 Z M69.4739281,11.9654093 C69.1824754,13.6882584 67.8138659,14.8450325 66.0679824,14.8450325 C65.1924915,14.8450325 64.4920421,14.5636933 64.0414093,14.0310168 C63.5953083,13.5031519 63.4270645,12.7508383 63.5686839,11.9130473 C63.840593,10.2054822 65.231012,9.01134714 66.950271,9.01134714 C67.8070682,9.01134714 68.5029857,9.29523373 68.962399,9.83300493 C69.4243613,10.3744556 69.6059173,11.1315809 69.4739281,11.9654093 Z" id="Shape"></path>
                        <path d="M44.8029852,6.09577811 L41.7697817,6.09577811 C41.4797452,6.09577811 41.2084025,6.23984418 41.045257,6.47957692 L36.8612545,12.6373402 L35.0878968,6.71987574 C34.9768673,6.34966272 34.6358478,6.09549507 34.249227,6.09549507 L31.2675729,6.09549507 C30.9075765,6.09549507 30.654361,6.44929191 30.7702057,6.79006903 L34.1101567,16.5865621 L30.968756,21.0155325 C30.7220551,21.3633856 30.9710219,21.8442663 31.3975794,21.8442663 L34.4276674,21.8442663 C34.7148714,21.8442663 34.983665,21.7035966 35.147377,21.4675434 L45.234641,6.9197002 C45.4759604,6.57184714 45.2267103,6.09577811 44.8029852,6.09577811 Z" id="Shape"></path>
                        <path d="M77.2363687,0.713820513 L74.6495494,17.1574487 C74.5994161,17.4758659 74.8458338,17.763998 75.1684427,17.763998 L77.7699904,17.763998 C78.2007965,17.763998 78.5675907,17.4509586 78.6350015,17.0255533 L81.185283,0.877416174 C81.2356995,0.558715976 80.9892818,0.270583826 80.6663897,0.270583826 L77.7555453,0.270583826 C77.4966651,0.270300789 77.2765886,0.45852071 77.2363687,0.713820513 Z" id="Shape"></path>
                    </g>
                    <g id="Group">
                        <path d="M21.1437591,7.05486869 C21.481581,4.89462626 21.1415032,3.42505051 19.9766099,2.09349495 C18.6941274,0.627878788 16.3773122,0 13.4130519,0 L4.80846322,0 C4.20275252,0 3.68671406,0.442060606 3.59252999,1.04250505 L0.00930561145,23.8305455 C-0.061191445,24.2802424 0.285372084,24.6866667 0.738809151,24.6866667 L6.05090335,24.6866667 L5.68431865,27.0185859 C5.62256323,27.412 5.92541859,27.7675152 6.32245801,27.7675152 L10.800149,27.7675152 C11.3300049,27.7675152 11.7811861,27.3808889 11.8638086,26.8556768 L11.9077988,26.6271515 L12.7512256,21.2624646 L12.8056493,20.9660606 C12.8882719,20.4411313 13.339453,20.0539394 13.8693089,20.0539394 L14.5390309,20.0539394 C18.8768558,20.0539394 22.273404,18.2865455 23.2657205,13.1747071 C23.6805252,11.0387879 23.4659322,9.25583838 22.36928,8.00234343 C22.0379438,7.62391919 21.625113,7.31054545 21.1437591,7.05486869" id="Shape" opacity="0.68"></path>
                        <path d="M21.1437591,7.05486869 C21.481581,4.89462626 21.1415032,3.42505051 19.9766099,2.09349495 C18.6941274,0.627878788 16.3773122,0 13.4130519,0 L4.80846322,0 C4.20275252,0 3.68671406,0.442060606 3.59252999,1.04250505 L0.00930561145,23.8305455 C-0.061191445,24.2802424 0.285372084,24.6866667 0.738809151,24.6866667 L6.05090335,24.6866667 L7.38527163,16.1998384 L7.34381936,16.4659798 C7.43828542,15.8658182 7.94953007,15.4234747 8.55552277,15.4234747 L11.0804453,15.4234747 C16.0389263,15.4234747 19.9216222,13.4029495 21.0557788,7.55971717 C21.0896174,7.38719192 21.1180982,7.21947475 21.1437591,7.05486869" id="Shape" opacity="0.7"></path>
                        <path d="M8.81889977,7.08343434 C8.8755794,6.72254545 9.10680975,6.42670707 9.41784276,6.27737374 C9.55911886,6.20949495 9.71731426,6.17159596 9.88284134,6.17159596 L16.6277177,6.17159596 C17.4268723,6.17159596 18.1718852,6.22420202 18.8528868,6.33422222 C19.0474587,6.36561616 19.2369548,6.40181818 19.4210931,6.44282828 C19.6049494,6.48383838 19.7837299,6.52937374 19.9565887,6.58028283 C20.0431591,6.60545455 20.1280376,6.63232323 20.2117881,6.6600404 C20.5462261,6.77147475 20.8578231,6.90270707 21.1443231,7.05515152 C21.482145,4.89490909 21.1420672,3.42533333 19.9771739,2.09377778 C18.6941274,0.627878788 16.3773122,0 13.4130519,0 L4.80846322,0 C4.20275252,0 3.68671406,0.442060606 3.59252999,1.04250505 L0.00930561145,23.8305455 C-0.061191445,24.2802424 0.285372084,24.6866667 0.738809151,24.6866667 L6.05090335,24.6866667 L7.38527163,16.1998384 L8.81889977,7.08343434 Z" id="Shape"></path>
                    </g>
                </g>
            </g>
        </g>
    </g>
</svg>