<svg height="60" viewBox="0 0 120 60.000001" width="120" xmlns="http://www.w3.org/2000/svg"><g transform="translate(3.910006 -16.13)"><g fill="#12323c"><path d="m17.84 49.65v9.89h-8.3v-9.89l-9.54-17.38h9.43l4.32 8.29c1.47-2.73 2.84-5.68 4.2-8.29h9.13z"/><path d="m43.64 59.43-7.73-12.73v12.73h-7.83v-27.16h7l7.73 12.5v-12.5h7.87v27.16z"/><path d="m70.34 54.65h-8l-1.54 4.78h-8.87l10-27.16h9.55l9.66 27.16h-9.21zm-4-12.38-2 6.25h4.2z"/><path d="m93.41 59.43h-11v-27.16h10.55c6.25 0 9.88 2.61 9.88 7.5 0 2.38-1.25 4.31-3.29 5.91a7 7 0 0 1 3.41 6c-.12 5.02-3.64 7.75-9.55 7.75zm-1.25-20.8h-2.08v4.43h2.2a2 2 0 0 0 1.93-2.27 1.89 1.89 0 0 0 -2.05-2.16zm-.08 10h-1.85v4.55h1.7c1.71 0 2.62-.8 2.62-2.16s-.68-2.39-2.47-2.39z"/></g><path d="m103.08 55.45a4.55 4.55 0 1 1 4.55 4.54 4.57 4.57 0 0 1 -4.55-4.54z" fill="#87c3e9"/></g></svg>